<?xml version="1.0" encoding="UTF-8"?>
<svg xmlns="http://www.w3.org/2000/svg" xmlns:xlink="http://www.w3.org/1999/xlink" width="48px" height="40px" viewBox="0 0 47 40" version="1.1">
<g id="surface1">
<path style=" stroke:none;fill-rule:nonzero;fill:rgb(49.803922%,33.333333%,22.352941%);fill-opacity:1;" d="M 31.503906 21.160156 C 30.660156 21.160156 30 20.933594 29.59375 20.523438 C 29.191406 20.113281 29.007812 19.402344 29.007812 18.429688 C 29.007812 17.644531 29.15625 16.824219 29.410156 15.960938 C 29.667969 15.066406 30.109375 14.316406 30.695312 13.683594 C 31.285156 13.046875 32.054688 12.710938 32.972656 12.710938 C 33.5625 12.710938 34 12.824219 34.367188 13.085938 C 34.734375 13.308594 34.882812 13.683594 34.882812 14.207031 C 34.882812 14.503906 34.808594 14.765625 34.699219 14.953125 C 34.550781 15.140625 34.367188 15.214844 34.074219 15.214844 C 33.78125 15.214844 33.597656 15.101562 33.414062 14.914062 C 33.5625 14.839844 33.671875 14.730469 33.78125 14.503906 C 33.890625 14.316406 33.929688 14.09375 33.929688 13.90625 C 33.929688 13.71875 33.855469 13.53125 33.746094 13.421875 C 33.632812 13.308594 33.449219 13.234375 33.230469 13.234375 C 32.828125 13.234375 32.460938 13.496094 32.09375 14.019531 C 31.726562 14.542969 31.429688 15.214844 31.210938 16 C 30.992188 16.824219 30.878906 17.570312 30.878906 18.316406 C 30.878906 18.878906 30.992188 19.289062 31.175781 19.589844 C 31.359375 19.886719 31.726562 20.039062 32.238281 20.039062 C 32.679688 20.039062 33.121094 19.925781 33.488281 19.738281 C 33.855469 19.550781 34.183594 19.289062 34.480469 18.914062 L 34.734375 19.027344 C 34.550781 19.476562 34.257812 19.886719 33.890625 20.1875 C 33.523438 20.484375 33.121094 20.710938 32.679688 20.859375 C 32.277344 21.085938 31.871094 21.160156 31.503906 21.160156 Z M 31.503906 21.160156 "/>
<path style=" stroke:none;fill-rule:nonzero;fill:rgb(49.803922%,33.333333%,22.352941%);fill-opacity:1;" d="M 35.726562 21.007812 C 35.46875 21.007812 35.25 20.933594 35.101562 20.746094 C 34.917969 20.5625 34.847656 20.375 34.847656 20.148438 C 34.847656 19.925781 34.917969 19.699219 35.101562 19.550781 C 35.285156 19.363281 35.507812 19.289062 35.726562 19.289062 C 35.949219 19.289062 36.203125 19.363281 36.351562 19.550781 C 36.535156 19.738281 36.609375 19.925781 36.609375 20.148438 C 36.609375 20.375 36.535156 20.597656 36.351562 20.746094 C 36.167969 20.933594 35.984375 21.007812 35.726562 21.007812 Z M 35.726562 21.007812 "/>
<path style=" stroke:none;fill-rule:nonzero;fill:rgb(49.803922%,33.333333%,22.352941%);fill-opacity:1;" d="M 25.667969 30.242188 C 24.820312 30.242188 24.160156 30.019531 23.757812 29.609375 C 23.351562 29.195312 23.167969 28.484375 23.167969 27.515625 C 23.167969 26.730469 23.316406 25.90625 23.574219 25.046875 C 23.832031 24.148438 24.269531 23.402344 24.859375 22.765625 C 25.445312 22.128906 26.21875 21.792969 27.136719 21.792969 C 27.722656 21.792969 28.164062 21.90625 28.53125 22.167969 C 28.898438 22.390625 29.042969 22.765625 29.042969 23.289062 C 29.042969 23.589844 28.972656 23.851562 28.859375 24.039062 C 28.714844 24.222656 28.53125 24.300781 28.273438 24.300781 C 28.015625 24.300781 27.796875 24.1875 27.613281 24 C 27.757812 23.925781 27.871094 23.8125 27.980469 23.589844 C 28.089844 23.402344 28.125 23.175781 28.125 22.992188 C 28.125 22.804688 28.054688 22.617188 27.941406 22.503906 C 27.832031 22.390625 27.648438 22.316406 27.429688 22.316406 C 27.023438 22.316406 26.65625 22.578125 26.289062 23.101562 C 25.921875 23.625 25.628906 24.300781 25.410156 25.085938 C 25.1875 25.90625 25.078125 26.652344 25.078125 27.402344 C 25.078125 27.960938 25.1875 28.375 25.371094 28.671875 C 25.554688 28.972656 25.921875 29.121094 26.4375 29.121094 C 26.878906 29.121094 27.320312 29.007812 27.6875 28.824219 C 28.054688 28.636719 28.382812 28.375 28.675781 28 L 28.933594 28.113281 C 28.75 28.5625 28.457031 28.972656 28.089844 29.269531 C 27.722656 29.570312 27.320312 29.792969 26.878906 29.945312 C 26.472656 30.167969 26.070312 30.242188 25.667969 30.242188 Z M 25.667969 30.242188 "/>
<path style=" stroke:none;fill-rule:nonzero;fill:rgb(49.803922%,33.333333%,22.352941%);fill-opacity:1;" d="M 29.890625 30.128906 C 29.632812 30.128906 29.410156 30.054688 29.265625 29.871094 C 29.082031 29.683594 29.007812 29.496094 29.007812 29.269531 C 29.007812 29.046875 29.082031 28.824219 29.265625 28.671875 C 29.449219 28.484375 29.667969 28.410156 29.890625 28.410156 C 30.144531 28.410156 30.367188 28.484375 30.511719 28.671875 C 30.695312 28.859375 30.769531 29.046875 30.769531 29.269531 C 30.769531 29.496094 30.695312 29.71875 30.511719 29.871094 C 30.367188 30.019531 30.144531 30.128906 29.890625 30.128906 Z M 29.890625 30.128906 "/>
<path style=" stroke:none;fill-rule:nonzero;fill:rgb(49.803922%,33.333333%,22.352941%);fill-opacity:1;" d="M 20.414062 39.886719 C 19.976562 39.886719 19.496094 39.699219 19.019531 39.289062 L 18.945312 39.738281 L 17.292969 39.738281 L 18.835938 32.746094 L 20.527344 32.523438 L 19.167969 38.691406 C 19.386719 38.839844 19.609375 38.914062 19.828125 38.914062 C 20.269531 38.914062 20.636719 38.691406 20.964844 38.207031 C 21.296875 37.71875 21.554688 37.121094 21.738281 36.375 C 21.921875 35.625 21.996094 34.878906 21.996094 34.09375 C 21.996094 33.382812 21.847656 32.859375 21.554688 32.523438 C 21.261719 32.1875 20.855469 32 20.34375 32 C 19.753906 32 19.242188 32.113281 18.800781 32.335938 C 18.359375 32.5625 17.992188 32.859375 17.734375 33.269531 C 17.476562 33.683594 17.332031 34.128906 17.332031 34.691406 C 17.332031 34.953125 17.367188 35.140625 17.40625 35.253906 C 17.441406 35.363281 17.476562 35.402344 17.476562 35.4375 C 17.074219 35.4375 16.78125 35.363281 16.558594 35.214844 C 16.339844 35.066406 16.265625 34.804688 16.265625 34.429688 C 16.265625 33.945312 16.449219 33.457031 16.855469 33.007812 C 17.257812 32.5625 17.773438 32.1875 18.394531 31.925781 C 19.058594 31.664062 19.753906 31.515625 20.527344 31.515625 C 21.554688 31.515625 22.324219 31.8125 22.839844 32.410156 C 23.316406 33.007812 23.574219 33.757812 23.574219 34.691406 C 23.574219 35.515625 23.425781 36.335938 23.132812 37.160156 C 22.839844 37.980469 22.472656 38.617188 21.957031 39.140625 C 21.480469 39.664062 20.964844 39.886719 20.414062 39.886719 Z M 20.414062 39.886719 "/>
<path style=" stroke:none;fill-rule:nonzero;fill:rgb(49.803922%,33.333333%,22.352941%);fill-opacity:1;" d="M 25.484375 39.8125 C 24.933594 39.8125 24.492188 39.664062 24.160156 39.402344 C 23.832031 39.140625 23.683594 38.691406 23.683594 38.09375 C 23.683594 37.609375 23.792969 37.046875 24.015625 36.449219 C 24.234375 35.851562 24.566406 35.328125 25.042969 34.878906 C 25.519531 34.429688 26.105469 34.207031 26.839844 34.207031 C 27.832031 34.207031 28.308594 34.804688 28.308594 35.960938 C 28.347656 35.960938 28.382812 35.960938 28.421875 35.960938 C 28.675781 35.960938 28.972656 35.886719 29.300781 35.777344 C 29.632812 35.625 29.925781 35.476562 30.183594 35.289062 L 30.292969 35.589844 C 30.074219 35.8125 29.777344 36 29.410156 36.1875 C 29.042969 36.335938 28.675781 36.449219 28.273438 36.523438 C 28.199219 37.195312 28.054688 37.757812 27.796875 38.28125 C 27.539062 38.765625 27.207031 39.175781 26.839844 39.4375 C 26.363281 39.664062 25.921875 39.8125 25.484375 39.8125 Z M 25.921875 38.804688 C 26.105469 38.804688 26.289062 38.691406 26.472656 38.503906 C 26.65625 38.316406 26.804688 38.019531 26.953125 37.683594 C 27.097656 37.347656 27.171875 36.933594 27.246094 36.523438 C 27.023438 36.484375 26.953125 36.335938 26.953125 36.074219 C 26.953125 35.777344 27.0625 35.589844 27.320312 35.476562 C 27.320312 35.253906 27.28125 35.066406 27.207031 34.992188 C 27.136719 34.878906 27.023438 34.839844 26.878906 34.839844 C 26.621094 34.839844 26.402344 35.027344 26.144531 35.363281 C 25.921875 35.699219 25.703125 36.148438 25.554688 36.636719 C 25.410156 37.121094 25.335938 37.570312 25.335938 37.945312 C 25.335938 38.28125 25.371094 38.542969 25.445312 38.652344 C 25.554688 38.765625 25.703125 38.804688 25.921875 38.804688 Z M 25.921875 38.804688 "/>
<path style=" stroke:none;fill-rule:nonzero;fill:rgb(49.803922%,33.333333%,22.352941%);fill-opacity:1;" d="M 32.9375 39.8125 C 32.460938 39.8125 32.128906 39.699219 31.910156 39.476562 C 31.6875 39.253906 31.578125 38.953125 31.578125 38.578125 C 31.578125 38.429688 31.613281 38.242188 31.652344 38.054688 C 31.6875 37.871094 31.726562 37.683594 31.761719 37.496094 C 31.796875 37.308594 31.835938 37.195312 31.835938 37.160156 C 31.910156 36.898438 31.945312 36.636719 32.019531 36.410156 C 32.054688 36.148438 32.09375 35.960938 32.09375 35.8125 C 32.09375 35.4375 31.945312 35.253906 31.6875 35.253906 C 31.503906 35.253906 31.320312 35.363281 31.175781 35.550781 C 31.027344 35.738281 30.917969 35.960938 30.808594 36.261719 L 30.035156 39.777344 L 28.382812 39.777344 L 29.59375 34.28125 L 31.246094 34.28125 L 31.136719 34.839844 C 31.503906 34.429688 31.980469 34.242188 32.460938 34.242188 C 32.863281 34.242188 33.15625 34.355469 33.378906 34.542969 C 33.597656 34.730469 33.707031 35.066406 33.707031 35.476562 C 33.707031 35.699219 33.671875 35.925781 33.632812 36.1875 C 33.597656 36.449219 33.488281 36.746094 33.414062 37.121094 C 33.339844 37.347656 33.304688 37.570312 33.230469 37.792969 C 33.195312 38.019531 33.15625 38.167969 33.15625 38.316406 C 33.15625 38.46875 33.195312 38.578125 33.265625 38.652344 C 33.339844 38.730469 33.449219 38.765625 33.632812 38.765625 C 33.855469 38.765625 34.039062 38.691406 34.183594 38.542969 C 34.332031 38.390625 34.441406 38.128906 34.589844 37.792969 L 35.066406 37.792969 C 34.773438 38.617188 34.441406 39.140625 34.074219 39.402344 C 33.746094 39.699219 33.339844 39.8125 32.9375 39.8125 Z M 32.9375 39.8125 "/>
<path style=" stroke:none;fill-rule:nonzero;fill:rgb(49.803922%,33.333333%,22.352941%);fill-opacity:1;" d="M 35.726562 39.8125 C 35.359375 39.8125 35.066406 39.699219 34.847656 39.476562 C 34.625 39.253906 34.515625 38.914062 34.515625 38.503906 C 34.515625 38.316406 34.550781 38.09375 34.589844 37.792969 L 35.359375 34.28125 L 37.011719 34.28125 L 36.203125 38.019531 C 36.167969 38.128906 36.167969 38.242188 36.167969 38.316406 C 36.167969 38.617188 36.277344 38.765625 36.5 38.765625 C 36.71875 38.765625 36.902344 38.691406 37.050781 38.503906 C 37.195312 38.316406 37.304688 38.09375 37.417969 37.792969 L 38.1875 34.28125 L 39.839844 34.28125 L 39.03125 38.019531 C 38.996094 38.128906 38.996094 38.242188 38.996094 38.355469 C 38.996094 38.503906 39.03125 38.617188 39.105469 38.691406 C 39.179688 38.765625 39.289062 38.765625 39.472656 38.765625 C 39.691406 38.765625 39.875 38.691406 40.023438 38.503906 C 40.171875 38.316406 40.316406 38.09375 40.390625 37.792969 L 40.867188 37.792969 C 40.574219 38.578125 40.242188 39.140625 39.804688 39.402344 C 39.398438 39.664062 38.957031 39.8125 38.554688 39.8125 C 38.222656 39.8125 37.96875 39.738281 37.785156 39.550781 C 37.601562 39.363281 37.488281 39.101562 37.453125 38.765625 C 37.195312 39.175781 36.902344 39.4375 36.644531 39.589844 C 36.316406 39.738281 36.019531 39.8125 35.726562 39.8125 Z M 35.726562 39.8125 "/>
<path style=" stroke:none;fill-rule:nonzero;fill:rgb(49.803922%,33.333333%,22.352941%);fill-opacity:1;" d="M 41.492188 39.8125 C 41.125 39.8125 40.832031 39.699219 40.609375 39.476562 C 40.390625 39.253906 40.28125 38.914062 40.28125 38.503906 C 40.28125 38.316406 40.316406 38.09375 40.355469 37.792969 L 41.050781 34.691406 L 40.683594 34.691406 L 40.757812 34.242188 L 41.125 34.242188 L 41.457031 32.710938 L 43.144531 32.484375 L 42.742188 34.207031 L 43.4375 34.207031 L 43.363281 34.652344 L 42.667969 34.652344 L 41.933594 37.945312 C 41.894531 38.054688 41.894531 38.167969 41.894531 38.28125 C 41.894531 38.429688 41.933594 38.542969 42.007812 38.617188 C 42.078125 38.691406 42.191406 38.691406 42.375 38.691406 C 42.59375 38.691406 42.8125 38.617188 42.996094 38.429688 C 43.179688 38.242188 43.328125 38.019531 43.402344 37.71875 L 43.878906 37.71875 C 43.585938 38.503906 43.21875 39.066406 42.777344 39.328125 C 42.375 39.699219 41.933594 39.8125 41.492188 39.8125 Z M 41.492188 39.8125 "/>
<path style=" stroke:none;fill-rule:nonzero;fill:rgb(49.803922%,33.333333%,22.352941%);fill-opacity:1;" d="M 44.722656 39.8125 C 44.355469 39.8125 44.0625 39.738281 43.804688 39.625 C 43.546875 39.476562 43.363281 39.328125 43.253906 39.101562 C 43.144531 38.878906 43.070312 38.652344 43.070312 38.429688 C 43.070312 38.207031 43.144531 37.980469 43.253906 37.792969 C 43.363281 37.609375 43.511719 37.496094 43.695312 37.382812 C 43.988281 36.859375 44.246094 36.335938 44.464844 35.851562 C 44.6875 35.328125 44.90625 34.765625 45.089844 34.128906 L 46.78125 33.90625 C 46.816406 34.839844 46.890625 35.851562 46.964844 36.933594 C 47 37.382812 47.035156 37.683594 47.035156 37.90625 C 47.035156 38.355469 46.925781 38.730469 46.667969 38.992188 C 46.449219 39.289062 46.15625 39.476562 45.789062 39.589844 C 45.421875 39.777344 45.089844 39.8125 44.722656 39.8125 Z M 44.355469 38.953125 C 44.648438 38.953125 44.871094 38.878906 45.054688 38.730469 C 45.238281 38.578125 45.347656 38.316406 45.347656 37.945312 C 45.347656 37.71875 45.3125 37.421875 45.273438 37.007812 C 45.199219 36.1875 45.164062 35.625 45.128906 35.328125 C 44.945312 35.886719 44.648438 36.597656 44.210938 37.421875 C 44.394531 37.496094 44.464844 37.644531 44.464844 37.792969 C 44.464844 37.945312 44.429688 38.054688 44.320312 38.167969 C 44.246094 38.28125 44.097656 38.316406 43.953125 38.316406 C 43.804688 38.316406 43.695312 38.28125 43.660156 38.167969 C 43.660156 38.429688 43.695312 38.617188 43.804688 38.765625 C 43.914062 38.914062 44.097656 38.953125 44.355469 38.953125 Z M 44.355469 38.953125 "/>
<path style=" stroke:none;fill-rule:nonzero;fill:rgb(90.980392%,76.078431%,79.215686%);fill-opacity:1;" d="M 27.171875 13.832031 C 25.042969 12.597656 22.507812 12.261719 20.085938 12.824219 C 17.699219 13.421875 15.605469 14.878906 14.355469 16.898438 C 13.070312 18.914062 12.703125 21.382812 13.328125 23.664062 C 13.953125 25.945312 15.457031 27.925781 17.589844 29.160156 L 22.398438 21.496094 Z M 27.171875 13.832031 "/>
<path style=" stroke:none;fill-rule:nonzero;fill:rgb(81.960784%,70.196078%,76.862745%);fill-opacity:1;" d="M 14.90625 33.382812 C 13.253906 32.449219 11.824219 31.214844 10.683594 29.757812 C 9.546875 28.300781 8.703125 26.617188 8.226562 24.859375 C 7.746094 23.101562 7.675781 21.234375 7.929688 19.4375 C 8.226562 17.644531 8.847656 15.886719 9.839844 14.316406 C 10.832031 12.746094 12.117188 11.402344 13.660156 10.316406 C 15.203125 9.234375 16.925781 8.449219 18.800781 8.039062 C 20.671875 7.589844 22.582031 7.515625 24.453125 7.8125 C 26.328125 8.074219 28.164062 8.710938 29.777344 9.683594 L 27.246094 13.644531 C 26.144531 13.007812 24.96875 12.597656 23.683594 12.410156 C 22.433594 12.222656 21.148438 12.261719 19.902344 12.5625 C 18.652344 12.859375 17.515625 13.382812 16.488281 14.09375 C 15.457031 14.804688 14.613281 15.738281 13.953125 16.746094 C 13.292969 17.792969 12.851562 18.953125 12.667969 20.148438 C 12.484375 21.347656 12.558594 22.578125 12.851562 23.738281 C 13.144531 24.933594 13.734375 26.019531 14.46875 26.992188 C 15.238281 27.960938 16.191406 28.785156 17.292969 29.382812 Z M 14.90625 33.382812 "/>
<path style=" stroke:none;fill-rule:nonzero;fill:rgb(70.196078%,57.254902%,67.45098%);fill-opacity:1;" d="M 10.941406 39.925781 C 5.839844 37.007812 2.128906 32.300781 0.699219 26.765625 C -0.769531 21.269531 0.109375 15.4375 3.15625 10.542969 C 6.167969 5.683594 11.125 2.128906 16.890625 0.746094 C 22.617188 -0.671875 28.75 0.1875 33.855469 3.066406 L 30.035156 9.234375 C 26.621094 7.328125 22.582031 6.765625 18.726562 7.699219 C 14.90625 8.636719 11.601562 10.992188 9.582031 14.242188 C 7.5625 17.496094 6.976562 21.347656 7.96875 25.007812 C 8.921875 28.671875 11.382812 31.8125 14.796875 33.757812 Z M 10.941406 39.925781 "/>
</g>
</svg>
