<svg width="18" height="19" viewBox="0 0 18 19" fill="none" xmlns="http://www.w3.org/2000/svg">
<path d="M14.625 7.85688C14.625 9.42809 14.1012 10.8795 13.2188 12.057L17.6695 16.3941C18.109 16.822 18.109 17.5169 17.6695 17.9448C17.2301 18.3727 16.5164 18.3727 16.077 17.9448L11.6262 13.6077C10.4168 14.4703 8.92617 14.9769 7.3125 14.9769C3.27305 14.9769 0 11.79 0 7.85688C0 3.92373 3.27305 0.736816 7.3125 0.736816C11.352 0.736816 14.625 3.92373 14.625 7.85688ZM7.3125 12.7862C7.97732 12.7862 8.63562 12.6587 9.24984 12.4109C9.86405 12.1632 10.4221 11.8001 10.8922 11.3424C11.3623 10.8847 11.7352 10.3413 11.9896 9.74324C12.2441 9.14519 12.375 8.5042 12.375 7.85688C12.375 7.20956 12.2441 6.56858 11.9896 5.97053C11.7352 5.37248 11.3623 4.82908 10.8922 4.37136C10.4221 3.91363 9.86405 3.55054 9.24984 3.30282C8.63562 3.05511 7.97732 2.92761 7.3125 2.92761C6.64768 2.92761 5.98938 3.05511 5.37516 3.30282C4.76095 3.55054 4.20287 3.91363 3.73277 4.37136C3.26268 4.82908 2.88977 5.37248 2.63536 5.97053C2.38095 6.56858 2.25 7.20956 2.25 7.85688C2.25 8.5042 2.38095 9.14519 2.63536 9.74324C2.88977 10.3413 3.26268 10.8847 3.73277 11.3424C4.20287 11.8001 4.76095 12.1632 5.37516 12.4109C5.98938 12.6587 6.64768 12.7862 7.3125 12.7862Z" fill="#7F5539"/>
</svg>
