<svg width="140" height="117" viewBox="0 0 140 117" fill="none" xmlns="http://www.w3.org/2000/svg">
<path d="M93.8267 61.6795C91.2623 61.6795 89.3786 61.0689 88.1759 59.8476C86.973 58.6265 86.3716 56.6019 86.3716 53.7738C86.3716 51.5242 86.7687 49.1033 87.563 46.5109C88.38 43.9186 89.6737 41.7011 91.4439 39.8586C93.2367 37.9947 95.5062 37.0627 98.2523 37.0627C99.9543 37.0627 101.327 37.4162 102.371 38.1232C103.415 38.8302 103.937 39.9121 103.937 41.369C103.937 42.2903 103.744 43.0187 103.359 43.5543C102.973 44.0685 102.371 44.3256 101.554 44.3256C100.737 44.3256 100.09 44.0471 99.6139 43.4901C100.022 43.2972 100.386 42.9116 100.703 42.3332C101.021 41.7547 101.18 41.1548 101.18 40.5334C101.18 39.955 101.01 39.4836 100.669 39.1194C100.351 38.7552 99.8295 38.5731 99.1033 38.5731C97.9005 38.5731 96.7544 39.3551 95.665 40.919C94.5757 42.4617 93.6906 44.4113 93.0097 46.768C92.3516 49.1247 92.0226 51.3957 92.0226 53.581C92.0226 55.2092 92.3176 56.4519 92.9076 57.3089C93.4977 58.1659 94.5643 58.5943 96.1076 58.5943C97.4466 58.5943 98.6834 58.3158 99.8182 57.7588C100.953 57.2018 101.929 56.409 102.746 55.3806L103.529 55.702C102.961 57.0518 102.122 58.1766 101.01 59.0764C99.8976 59.9763 98.7062 60.6404 97.4353 61.0689C96.1643 61.4759 94.9615 61.6795 93.8267 61.6795Z" fill="#7F5539"/>
<path d="M106.39 61.2934C105.641 61.2934 105.006 61.0471 104.484 60.5544C103.962 60.0616 103.701 59.4617 103.701 58.7547C103.701 58.0477 103.962 57.4478 104.484 56.955C105.006 56.4408 105.641 56.1837 106.39 56.1837C107.139 56.1837 107.775 56.4408 108.297 56.955C108.841 57.4478 109.114 58.0477 109.114 58.7547C109.114 59.4617 108.841 60.0616 108.297 60.5544C107.775 61.0471 107.139 61.2934 106.39 61.2934Z" fill="#7F5539"/>
<path d="M76.4969 88.2924C73.9323 88.2924 72.0488 87.6819 70.8459 86.4607C69.643 85.2394 69.0416 83.2148 69.0416 80.3868C69.0416 78.1373 69.4389 75.7162 70.2332 73.1239C71.0502 70.5315 72.3438 68.3141 74.1139 66.4716C75.9068 64.6077 78.1762 63.6757 80.9223 63.6757C82.6244 63.6757 83.9975 64.0292 85.0414 64.7362C86.0854 65.4432 86.6074 66.5251 86.6074 67.982C86.6074 68.9033 86.4145 69.6316 86.0286 70.1673C85.6428 70.6815 85.0414 70.9385 84.2244 70.9385C83.4074 70.9385 82.7606 70.66 82.2841 70.103C82.6925 69.9101 83.0556 69.5245 83.3734 68.9461C83.6911 68.3676 83.8499 67.7678 83.8499 67.1465C83.8499 66.568 83.6798 66.0966 83.3393 65.7325C83.0216 65.3682 82.4996 65.1862 81.7734 65.1862C80.5705 65.1862 79.4245 65.9681 78.3352 67.5321C77.2458 69.0747 76.3608 71.0243 75.6799 73.3809C75.0218 75.7377 74.6926 78.0086 74.6926 80.1939C74.6926 81.8222 74.9876 83.0648 75.5778 83.9219C76.1678 84.7789 77.2345 85.2074 78.7776 85.2074C80.1166 85.2074 81.3535 84.9289 82.4882 84.3717C83.6229 83.8147 84.5989 83.0221 85.4159 81.9937L86.1988 82.3151C85.6315 83.6647 84.7918 84.7896 83.6798 85.6894C82.5676 86.5892 81.3762 87.2533 80.1053 87.6818C78.8344 88.089 77.6316 88.2924 76.4969 88.2924Z" fill="#7F5539"/>
<path d="M89.0606 87.9068C88.3118 87.9068 87.6763 87.6605 87.1543 87.1677C86.6323 86.6749 86.3713 86.0751 86.3713 85.3681C86.3713 84.661 86.6323 84.0612 87.1543 83.5684C87.6763 83.0541 88.3118 82.797 89.0606 82.797C89.8096 82.797 90.4451 83.0541 90.967 83.5684C91.5116 84.0612 91.7841 84.661 91.7841 85.3681C91.7841 86.0751 91.5116 86.6749 90.967 87.1677C90.4451 87.6605 89.8096 87.9068 89.0606 87.9068Z" fill="#7F5539"/>
<path d="M60.8557 116.538C59.494 116.538 58.1097 115.97 56.7026 114.834L56.4303 116.12H51.5282L56.158 95.6809L61.1961 95.0382L57.1111 113.067C57.7465 113.495 58.3934 113.71 59.0515 113.71C60.3451 113.71 61.4798 113.003 62.4557 111.589C63.4543 110.175 64.2258 108.375 64.7706 106.19C65.3151 104.004 65.5876 101.798 65.5876 99.5694C65.5876 97.4699 65.145 95.938 64.2599 94.9739C63.3976 93.9884 62.1833 93.4957 60.6174 93.4957C58.9153 93.4957 57.3834 93.8169 56.0218 94.4597C54.6828 95.0811 53.6275 95.9808 52.8558 97.1592C52.0842 98.3376 51.6984 99.7194 51.6984 101.305C51.6984 102.098 51.7778 102.655 51.9367 102.976C52.0955 103.276 52.175 103.447 52.175 103.49C50.995 103.49 50.0871 103.254 49.4517 102.783C48.839 102.312 48.5325 101.551 48.5325 100.501C48.5325 99.0446 49.1112 97.6627 50.2687 96.3558C51.4261 95.0489 52.9694 93.9991 54.8984 93.2063C56.8501 92.4137 58.9494 92.0173 61.1961 92.0173C64.3053 92.0173 66.5974 92.885 68.0726 94.6204C69.5477 96.3558 70.2853 98.5732 70.2853 101.273C70.2853 103.715 69.8427 106.125 68.9577 108.504C68.0953 110.86 66.9379 112.788 65.4854 114.288C64.033 115.788 62.4897 116.538 60.8557 116.538Z" fill="#7F5539"/>
<path d="M75.8711 116.249C74.1917 116.249 72.8641 115.842 71.8882 115.027C70.9123 114.213 70.4244 112.928 70.4244 111.171C70.4244 109.714 70.7421 108.096 71.3775 106.318C72.013 104.54 73.0342 103.008 74.4414 101.723C75.8484 100.416 77.6185 99.7623 79.7518 99.7623C82.6568 99.7623 84.1093 101.476 84.1093 104.904V104.936C84.1773 104.958 84.3021 104.968 84.4837 104.968C85.2326 104.968 86.095 104.786 87.0708 104.422C88.0467 104.037 88.9318 103.576 89.7261 103.04L90.0326 103.908C89.3744 104.572 88.512 105.14 87.4453 105.611C86.4014 106.061 85.2553 106.382 84.0071 106.575C83.8255 108.525 83.3603 110.228 82.6114 111.685C81.8624 113.142 80.898 114.267 79.7178 115.059C78.5377 115.852 77.2554 116.249 75.8711 116.249ZM77.2328 113.356C77.7774 113.356 78.3221 113.067 78.8668 112.489C79.4114 111.889 79.8881 111.085 80.2965 110.078C80.7051 109.05 81.0001 107.914 81.1817 106.672C80.5688 106.543 80.2625 106.093 80.2625 105.322C80.2625 104.444 80.6143 103.865 81.3178 103.587C81.2724 102.88 81.159 102.398 80.9774 102.141C80.7958 101.862 80.4781 101.723 80.0242 101.723C79.2753 101.723 78.5491 102.237 77.8455 103.265C77.142 104.294 76.5747 105.526 76.1434 106.961C75.7122 108.396 75.4967 109.661 75.4967 110.753C75.4967 111.782 75.6214 112.478 75.8711 112.842C76.1207 113.185 76.5747 113.356 77.2328 113.356Z" fill="#7F5539"/>
<path d="M98.1499 116.312C96.7655 116.312 95.7442 115.969 95.086 115.284C94.4506 114.577 94.1329 113.709 94.1329 112.681C94.1329 112.231 94.1896 111.727 94.303 111.17C94.4166 110.592 94.53 110.035 94.6435 109.499C94.7797 108.964 94.8705 108.621 94.9159 108.471C95.0974 107.721 95.2676 106.982 95.4265 106.253C95.5853 105.525 95.6647 104.936 95.6647 104.486C95.6647 103.393 95.2563 102.847 94.4393 102.847C93.8492 102.847 93.3272 103.125 92.8733 103.682C92.4194 104.218 92.0563 104.925 91.784 105.803L89.4692 116.119H84.5671L88.1756 100.051H93.0776L92.7032 101.722C93.8379 100.522 95.1655 99.9225 96.686 99.9225C97.8435 99.9225 98.7626 100.222 99.4435 100.822C100.124 101.422 100.465 102.333 100.465 103.554C100.465 104.175 100.385 104.872 100.226 105.643C100.067 106.393 99.8406 107.314 99.5456 108.407C99.364 109.071 99.1938 109.724 99.0349 110.367C98.8988 110.988 98.8307 111.481 98.8307 111.845C98.8307 112.274 98.9328 112.606 99.137 112.842C99.3413 113.077 99.693 113.195 100.192 113.195C100.873 113.195 101.418 112.97 101.826 112.52C102.235 112.049 102.643 111.331 103.052 110.367H104.482C103.642 112.724 102.666 114.309 101.554 115.123C100.465 115.916 99.33 116.312 98.1499 116.312Z" fill="#7F5539"/>
<path d="M106.418 116.312C105.329 116.312 104.444 115.991 103.763 115.348C103.105 114.705 102.776 113.741 102.776 112.456C102.776 111.92 102.866 111.224 103.048 110.367L105.363 100.051H110.265L107.814 110.977C107.746 111.299 107.712 111.599 107.712 111.877C107.712 112.756 108.052 113.195 108.733 113.195C109.368 113.195 109.913 112.948 110.367 112.456C110.821 111.941 111.184 111.245 111.456 110.367L113.771 100.051H118.673L116.222 110.977C116.131 111.299 116.086 111.641 116.086 112.006C116.086 112.434 116.188 112.745 116.392 112.938C116.619 113.109 116.982 113.195 117.482 113.195C118.117 113.195 118.662 112.938 119.116 112.423C119.592 111.909 119.967 111.224 120.239 110.367H121.669C120.829 112.681 119.785 114.255 118.537 115.091C117.312 115.905 116.075 116.312 114.826 116.312C113.851 116.312 113.068 116.055 112.478 115.541C111.91 115.026 111.57 114.266 111.456 113.259C110.685 114.437 109.868 115.241 109.005 115.669C108.166 116.098 107.303 116.312 106.418 116.312Z" fill="#7F5539"/>
<path d="M123.605 116.314C122.516 116.314 121.631 115.992 120.95 115.349C120.292 114.707 119.963 113.743 119.963 112.457C119.963 111.922 120.054 111.225 120.235 110.368L122.278 101.338H121.154L121.427 100.052H122.55L123.571 95.6175L128.609 94.9747L127.452 100.052H129.494L129.223 101.338H127.18L125.002 110.979C124.91 111.3 124.865 111.643 124.865 112.007C124.865 112.436 124.967 112.746 125.172 112.939C125.399 113.111 125.761 113.196 126.26 113.196C126.919 113.196 127.531 112.939 128.099 112.425C128.667 111.889 129.075 111.204 129.324 110.368H130.754C129.915 112.682 128.837 114.257 127.52 115.092C126.204 115.906 124.899 116.314 123.605 116.314Z" fill="#7F5539"/>
<path d="M133.191 116.312C132.102 116.312 131.183 116.119 130.434 115.734C129.685 115.327 129.129 114.813 128.766 114.191C128.403 113.549 128.221 112.884 128.221 112.199C128.221 111.492 128.403 110.881 128.766 110.367C129.107 109.831 129.527 109.446 130.025 109.21C130.91 107.71 131.682 106.2 132.34 104.679C132.999 103.136 133.623 101.476 134.213 99.6976L139.252 99.0548C139.365 101.797 139.557 104.764 139.83 107.957C139.943 109.242 140 110.174 140 110.753C140 112.059 139.649 113.131 138.945 113.966C138.241 114.802 137.368 115.402 136.324 115.766C135.303 116.13 134.259 116.312 133.191 116.312ZM132.102 113.773C132.942 113.773 133.646 113.538 134.213 113.066C134.78 112.595 135.064 111.835 135.064 110.785C135.064 110.142 134.996 109.242 134.859 108.085C134.632 105.643 134.485 104.004 134.418 103.168C133.873 104.861 132.953 106.885 131.66 109.242C132.181 109.499 132.443 109.874 132.443 110.367C132.443 110.774 132.295 111.138 132 111.46C131.728 111.781 131.376 111.942 130.945 111.942C130.469 111.942 130.162 111.802 130.025 111.524C130.025 112.295 130.184 112.863 130.502 113.227C130.842 113.591 131.376 113.773 132.102 113.773Z" fill="#7F5539"/>
<path d="M80.9844 40.209C74.6403 36.6534 67.0516 35.6098 59.8879 37.3078C52.7243 39.0058 46.5725 43.3062 42.7857 49.263C38.9989 55.22 37.8876 62.3454 39.6959 69.0717C41.5043 75.798 46.0843 81.5743 52.4284 85.1299L66.7064 62.6694L80.9844 40.209Z" fill="#E8C2CA"/>
<path d="M44.4197 97.3997C39.5234 94.6819 35.2485 91.0811 31.841 86.8049C28.4336 82.5288 25.9612 77.6617 24.5661 72.4842C23.171 67.3069 22.8809 61.9213 23.7126 56.6381C24.5443 51.3549 26.4813 46.2785 29.4119 41.7014C32.3424 37.1243 36.2087 33.1369 40.788 29.9693C45.3673 26.8015 50.5688 24.5159 56.0931 23.2443C61.6172 21.9727 67.3549 21.7401 72.9752 22.56C78.5957 23.38 83.9877 25.2362 88.8405 28.0217L81.323 39.5688C78.0927 37.7147 74.5036 36.4792 70.7624 35.9333C67.0213 35.3876 63.2021 35.5424 59.525 36.3889C55.8478 37.2352 52.3855 38.7566 49.3374 40.8652C46.2892 42.9737 43.7157 45.6279 41.7649 48.6746C39.8142 51.7213 38.5248 55.1004 37.9713 58.6171C37.4177 62.1338 37.6108 65.7185 38.5394 69.1648C39.4679 72.6111 41.1137 75.8508 43.3819 78.6972C45.65 81.5437 48.4957 83.9404 51.7548 85.7495L44.4197 97.3997Z" fill="#D1B3C4"/>
<path d="M32.5499 116.574C17.3592 108.056 6.38821 94.227 2.0445 78.1219C-2.29922 62.017 0.339215 44.9517 9.38076 30.6712C18.4223 16.3908 33.1284 6.06173 50.2715 1.95079C67.4148 -2.16015 85.5947 0.282868 100.822 8.74373L89.4467 26.7925C79.311 21.1606 67.2096 19.5344 55.7985 22.2708C44.3873 25.0072 34.5984 31.8827 28.58 41.3883C22.5616 50.8939 20.8053 62.2532 23.6967 72.9733C26.588 83.6934 33.8908 92.8985 44.0022 98.5687L32.5499 116.574Z" fill="#B392AC"/>
</svg>
