<svg width="140" height="118" viewBox="0 0 140 118" fill="none" xmlns="http://www.w3.org/2000/svg">
<path d="M93.8267 62.2795C91.2623 62.2795 89.3786 61.6688 88.1759 60.4476C86.973 59.2265 86.3716 57.2018 86.3716 54.3737C86.3716 52.1242 86.7687 49.7032 87.563 47.1109C88.38 44.5185 89.6737 42.301 91.4439 40.4585C93.2367 38.5946 95.5062 37.6626 98.2523 37.6626C99.9543 37.6626 101.327 38.0162 102.371 38.7232C103.415 39.4302 103.937 40.512 103.937 41.9689C103.937 42.8902 103.744 43.6187 103.359 44.1542C102.973 44.6685 102.371 44.9256 101.554 44.9256C100.737 44.9256 100.09 44.647 99.6139 44.09C100.022 43.8972 100.386 43.5116 100.703 42.9331C101.021 42.3546 101.18 41.7547 101.18 41.1334C101.18 40.5549 101.01 40.0835 100.669 39.7194C100.351 39.3551 99.8295 39.1731 99.1033 39.1731C97.9005 39.1731 96.7544 39.955 95.665 41.519C94.5757 43.0616 93.6906 45.0112 93.0097 47.3679C92.3516 49.7247 92.0226 51.9957 92.0226 54.181C92.0226 55.8092 92.3176 57.0519 92.9076 57.9088C93.4977 58.7658 94.5643 59.1943 96.1076 59.1943C97.4466 59.1943 98.6834 58.9158 99.8182 58.3588C100.953 57.8017 101.929 57.009 102.746 55.9806L103.529 56.302C102.961 57.6518 102.122 58.7765 101.01 59.6764C99.8976 60.5762 98.7062 61.2404 97.4353 61.6688C96.1643 62.0759 94.9615 62.2795 93.8267 62.2795Z" fill="#7F5539"/>
<path d="M106.39 61.8934C105.641 61.8934 105.006 61.647 104.484 61.1543C103.962 60.6615 103.701 60.0616 103.701 59.3546C103.701 58.6476 103.962 58.0477 104.484 57.5549C105.006 57.0408 105.641 56.7837 106.39 56.7837C107.139 56.7837 107.775 57.0408 108.297 57.5549C108.841 58.0477 109.114 58.6476 109.114 59.3546C109.114 60.0616 108.841 60.6615 108.297 61.1543C107.775 61.647 107.139 61.8934 106.39 61.8934Z" fill="#7F5539"/>
<path d="M76.4968 88.8926C73.9322 88.8926 72.0486 88.2821 70.8458 87.0609C69.6429 85.8396 69.0415 83.815 69.0415 80.987C69.0415 78.7375 69.4388 76.3164 70.2331 73.724C71.0501 71.1317 72.3436 68.9143 74.1138 67.0718C75.9067 65.2079 78.1761 64.2759 80.9222 64.2759C82.6242 64.2759 83.9974 64.6294 85.0412 65.3364C86.0852 66.0434 86.6072 67.1253 86.6072 68.5822C86.6072 69.5035 86.4144 70.2318 86.0285 70.7675C85.6427 71.2816 85.0412 71.5387 84.2242 71.5387C83.4072 71.5387 82.7605 71.2602 82.2839 70.7032C82.6924 70.5103 83.0555 70.1247 83.3732 69.5463C83.6909 68.9678 83.8498 68.368 83.8498 67.7467C83.8498 67.1682 83.6797 66.6968 83.3392 66.3327C83.0215 65.9684 82.4995 65.7864 81.7732 65.7864C80.5704 65.7864 79.4244 66.5683 78.3351 68.1323C77.2457 69.6749 76.3606 71.6245 75.6798 73.9811C75.0216 76.3378 74.6925 78.6088 74.6925 80.7941C74.6925 82.4224 74.9875 83.665 75.5776 84.5221C76.1677 85.3791 77.2344 85.8076 78.7775 85.8076C80.1165 85.8076 81.3534 85.5291 82.4881 84.9719C83.6228 84.4149 84.5988 83.6223 85.4158 82.5939L86.1987 82.9153C85.6314 84.2649 84.7917 85.3898 83.6797 86.2895C82.5675 87.1894 81.3761 87.8535 80.1052 88.282C78.8342 88.6892 77.6315 88.8926 76.4968 88.8926Z" fill="#7F5539"/>
<path d="M89.0606 88.5068C88.3118 88.5068 87.6763 88.2604 87.1543 87.7676C86.6323 87.2748 86.3713 86.675 86.3713 85.968C86.3713 85.2609 86.6323 84.6611 87.1543 84.1683C87.6763 83.654 88.3118 83.397 89.0606 83.397C89.8096 83.397 90.4451 83.654 90.967 84.1683C91.5116 84.6611 91.7841 85.2609 91.7841 85.968C91.7841 86.675 91.5116 87.2748 90.967 87.7676C90.4451 88.2604 89.8096 88.5068 89.0606 88.5068Z" fill="#7F5539"/>
<path d="M60.8556 117.138C59.4939 117.138 58.1096 116.57 56.7025 115.435L56.4302 116.72H51.5282L56.1579 96.2812L61.1961 95.6385L57.1111 113.667C57.7465 114.096 58.3933 114.31 59.0515 114.31C60.3451 114.31 61.4798 113.603 62.4556 112.189C63.4542 110.775 64.2258 108.975 64.7705 106.79C65.3151 104.605 65.5875 102.398 65.5875 100.17C65.5875 98.0702 65.1449 96.5384 64.2598 95.5742C63.3975 94.5887 62.1832 94.096 60.6173 94.096C58.9152 94.096 57.3833 94.4173 56.0218 95.0601C54.6828 95.6814 53.6275 96.5812 52.8558 97.7595C52.0842 98.9379 51.6983 100.32 51.6983 101.905C51.6983 102.698 51.7778 103.255 51.9366 103.576C52.0955 103.876 52.1749 104.048 52.1749 104.09C50.9949 104.09 50.087 103.855 49.4516 103.383C48.8389 102.912 48.5325 102.152 48.5325 101.102C48.5325 99.6449 49.1112 98.2631 50.2686 96.9562C51.426 95.6493 52.9693 94.5994 54.8983 93.8066C56.8501 93.014 58.9493 92.6177 61.1961 92.6177C64.3052 92.6177 66.5974 93.4854 68.0725 95.2208C69.5477 96.9562 70.2852 99.1735 70.2852 101.873C70.2852 104.315 69.8427 106.726 68.9576 109.104C68.0952 111.461 66.9378 113.389 65.4854 114.889C64.0329 116.388 62.4896 117.138 60.8556 117.138Z" fill="#7F5539"/>
<path d="M75.871 116.849C74.1916 116.849 72.864 116.441 71.8882 115.627C70.9122 114.813 70.4243 113.528 70.4243 111.771C70.4243 110.314 70.742 108.696 71.3775 106.918C72.0129 105.14 73.0342 103.608 74.4413 102.323C75.8483 101.016 77.6185 100.362 79.7518 100.362C82.6568 100.362 84.1092 102.076 84.1092 105.504V105.536C84.1772 105.558 84.3021 105.568 84.4836 105.568C85.2325 105.568 86.0949 105.386 87.0708 105.022C88.0466 104.637 88.9318 104.176 89.7261 103.64L90.0325 104.508C89.3744 105.172 88.5119 105.74 87.4452 106.211C86.4013 106.661 85.2552 106.982 84.0071 107.175C83.8255 109.125 83.3602 110.828 82.6113 112.285C81.8623 113.742 80.8979 114.867 79.7178 115.659C78.5376 116.452 77.2553 116.849 75.871 116.849ZM77.2328 113.956C77.7773 113.956 78.322 113.667 78.8668 113.089C79.4113 112.489 79.888 111.685 80.2965 110.678C80.705 109.65 81 108.514 81.1816 107.272C80.5688 107.143 80.2625 106.693 80.2625 105.922C80.2625 105.044 80.6142 104.465 81.3178 104.187C81.2723 103.48 81.1589 102.998 80.9773 102.74C80.7958 102.462 80.478 102.323 80.0242 102.323C79.2752 102.323 78.549 102.837 77.8455 103.865C77.1419 104.894 76.5746 106.125 76.1433 107.561C75.7122 108.996 75.4966 110.261 75.4966 111.353C75.4966 112.382 75.6213 113.078 75.871 113.442C76.1206 113.785 76.5746 113.956 77.2328 113.956Z" fill="#7F5539"/>
<path d="M98.1499 116.912C96.7655 116.912 95.7442 116.569 95.086 115.884C94.4506 115.177 94.1329 114.309 94.1329 113.281C94.1329 112.831 94.1896 112.327 94.303 111.77C94.4166 111.192 94.53 110.635 94.6435 110.099C94.7797 109.564 94.8705 109.221 94.9159 109.071C95.0974 108.321 95.2676 107.582 95.4265 106.853C95.5853 106.125 95.6647 105.536 95.6647 105.086C95.6647 103.993 95.2563 103.447 94.4393 103.447C93.8492 103.447 93.3272 103.725 92.8733 104.282C92.4194 104.818 92.0563 105.525 91.784 106.403L89.4692 116.719H84.5671L88.1756 100.651H93.0776L92.7032 102.322C93.8379 101.122 95.1655 100.522 96.686 100.522C97.8435 100.522 98.7626 100.822 99.4435 101.422C100.124 102.022 100.465 102.933 100.465 104.154C100.465 104.775 100.385 105.472 100.226 106.243C100.067 106.993 99.8406 107.914 99.5456 109.007C99.364 109.671 99.1938 110.324 99.0349 110.967C98.8987 111.588 98.8307 112.081 98.8307 112.445C98.8307 112.874 98.9328 113.206 99.137 113.442C99.3413 113.677 99.693 113.795 100.192 113.795C100.873 113.795 101.418 113.57 101.826 113.12C102.235 112.649 102.643 111.931 103.052 110.967H104.482C103.642 113.324 102.666 114.909 101.554 115.723C100.465 116.516 99.33 116.912 98.1499 116.912Z" fill="#7F5539"/>
<path d="M106.418 116.912C105.329 116.912 104.444 116.591 103.763 115.948C103.105 115.305 102.776 114.341 102.776 113.056C102.776 112.52 102.866 111.824 103.048 110.967L105.363 100.651H110.265L107.814 111.577C107.746 111.899 107.712 112.199 107.712 112.477C107.712 113.356 108.052 113.795 108.733 113.795C109.368 113.795 109.913 113.548 110.367 113.056C110.821 112.542 111.184 111.845 111.456 110.967L113.771 100.651H118.673L116.222 111.577C116.131 111.899 116.086 112.242 116.086 112.606C116.086 113.034 116.188 113.345 116.392 113.538C116.619 113.709 116.983 113.795 117.482 113.795C118.117 113.795 118.662 113.538 119.116 113.024C119.592 112.509 119.967 111.824 120.239 110.967H121.669C120.829 113.281 119.785 114.855 118.537 115.691C117.312 116.505 116.075 116.912 114.827 116.912C113.851 116.912 113.068 116.655 112.478 116.141C111.91 115.627 111.57 114.866 111.456 113.859C110.685 115.038 109.868 115.841 109.005 116.269C108.166 116.698 107.303 116.912 106.418 116.912Z" fill="#7F5539"/>
<path d="M123.605 116.914C122.516 116.914 121.631 116.592 120.95 115.949C120.292 115.307 119.963 114.343 119.963 113.057C119.963 112.522 120.054 111.825 120.235 110.968L122.278 101.938H121.154L121.427 100.652H122.55L123.571 96.2175L128.609 95.5747L127.452 100.652H129.494L129.223 101.938H127.18L125.002 111.579C124.91 111.9 124.865 112.243 124.865 112.607C124.865 113.036 124.967 113.346 125.172 113.539C125.399 113.711 125.761 113.796 126.26 113.796C126.919 113.796 127.531 113.539 128.099 113.025C128.667 112.489 129.075 111.804 129.324 110.968H130.754C129.915 113.282 128.837 114.857 127.52 115.692C126.204 116.506 124.899 116.914 123.605 116.914Z" fill="#7F5539"/>
<path d="M133.191 116.912C132.102 116.912 131.183 116.719 130.434 116.334C129.685 115.927 129.129 115.413 128.766 114.791C128.403 114.149 128.221 113.484 128.221 112.799C128.221 112.092 128.403 111.481 128.766 110.967C129.107 110.431 129.527 110.046 130.025 109.81C130.91 108.31 131.682 106.8 132.34 105.279C132.999 103.736 133.623 102.076 134.213 100.298L139.252 99.6548C139.365 102.397 139.557 105.364 139.83 108.557C139.943 109.842 140 110.774 140 111.353C140 112.659 139.649 113.731 138.945 114.566C138.241 115.402 137.368 116.002 136.324 116.366C135.303 116.73 134.259 116.912 133.191 116.912ZM132.102 114.373C132.942 114.373 133.646 114.138 134.213 113.666C134.78 113.195 135.064 112.435 135.064 111.385C135.064 110.742 134.996 109.842 134.859 108.685C134.632 106.243 134.485 104.604 134.418 103.768C133.873 105.461 132.953 107.485 131.66 109.842C132.181 110.099 132.443 110.474 132.443 110.967C132.443 111.374 132.295 111.738 132 112.06C131.728 112.381 131.376 112.542 130.945 112.542C130.469 112.542 130.162 112.402 130.025 112.124C130.025 112.895 130.184 113.463 130.502 113.827C130.842 114.191 131.376 114.373 132.102 114.373Z" fill="#7F5539"/>
<path d="M80.9843 40.8092C74.6401 37.2536 67.0514 36.21 59.8878 37.908C52.7242 39.606 46.5724 43.9064 42.7856 49.8632C38.9988 55.8202 37.8874 62.9456 39.6958 69.6719C41.5042 76.3982 46.0841 82.1745 52.4283 85.7301L66.7063 63.2696L80.9843 40.8092Z" fill="#E8C2CA"/>
<path d="M44.4197 97.9996C39.5234 95.2819 35.2485 91.6811 31.841 87.4049C28.4336 83.1288 25.9612 78.2617 24.5661 73.0842C23.171 67.9068 22.8809 62.5213 23.7126 57.2381C24.5443 51.9549 26.4813 46.8784 29.4119 42.3014C32.3424 37.7243 36.2087 33.7369 40.788 30.5692C45.3673 27.4014 50.5688 25.1159 56.0931 23.8443C61.6172 22.5727 67.3549 22.3401 72.9752 23.16C78.5957 23.9799 83.9877 25.8362 88.8405 28.6216L81.323 40.1688C78.0927 38.3146 74.5036 37.0792 70.7624 36.5333C67.0213 35.9876 63.2021 36.1424 59.525 36.9888C55.8478 37.8352 52.3855 39.3565 49.3374 41.4652C46.2892 43.5737 43.7157 46.2278 41.7649 49.2746C39.8142 52.3213 38.5248 55.7004 37.9713 59.2171C37.4177 62.7337 37.6108 66.3185 38.5394 69.7648C39.4679 73.2111 41.1137 76.4508 43.3819 79.2972C45.65 82.1436 48.4957 84.5403 51.7548 86.3495L44.4197 97.9996Z" fill="#D1B3C4"/>
<path d="M32.5499 117.174C17.3592 108.656 6.38821 94.8271 2.0445 78.722C-2.29922 62.6171 0.339215 45.5518 9.38076 31.2713C18.4223 16.9909 33.1284 6.66183 50.2715 2.55089C67.4148 -1.56005 85.5947 0.882966 100.822 9.34383L89.4467 27.3926C79.311 21.7607 67.2096 20.1345 55.7985 22.8709C44.3873 25.6073 34.5984 32.4828 28.58 41.9884C22.5616 51.494 20.8053 62.8533 23.6967 73.5734C26.588 84.2935 33.8908 93.4986 44.0022 99.1688L32.5499 117.174Z" fill="#B392AC"/>
</svg>
