<svg width="64" height="65" viewBox="0 0 64 65" fill="none" xmlns="http://www.w3.org/2000/svg">
<path d="M64 32.6001C64 14.9251 49.675 0.600098 32 0.600098C14.325 0.600098 0 14.9251 0 32.6001C0 48.5751 11.7 61.8126 27 64.2126V41.8501H18.875V32.6001H27V25.5501C27 17.5313 31.775 13.1001 39.0875 13.1001C42.5875 13.1001 46.25 13.7251 46.25 13.7251V21.6001H42.2125C38.2375 21.6001 37 24.0688 37 26.6001V32.6001H45.875L44.4562 41.8501H37V64.2126C52.3 61.8126 64 48.5751 64 32.6001Z" fill="#1877F2"/>
<path d="M44.4562 41.8501L45.875 32.6001H37V26.6001C37 24.0688 38.2375 21.6001 42.2125 21.6001H46.25V13.7251C46.25 13.7251 42.5875 13.1001 39.0875 13.1001C31.775 13.1001 27 17.5313 27 25.5501V32.6001H18.875V41.8501H27V64.2126C28.6313 64.4688 30.3 64.6001 32 64.6001C33.7 64.6001 35.3687 64.4688 37 64.2126V41.8501H44.4562Z" fill="white"/>
</svg>
