<svg width="64" height="65" viewBox="0 0 64 65" fill="none" xmlns="http://www.w3.org/2000/svg">
<path d="M31.9999 6.36505C40.5444 6.36505 41.5564 6.39705 44.931 6.55117C48.0513 6.69352 49.7456 7.21425 50.8731 7.65281C52.3674 8.23371 53.433 8.92623 54.5528 10.046C55.6723 11.1659 56.3664 12.2316 56.946 13.7257C57.3846 14.8532 57.9053 16.5475 58.0476 19.6679C58.2015 23.0424 58.2338 24.0542 58.2338 32.5989C58.2338 41.1437 58.2018 42.1552 58.0476 45.5298C57.9053 48.6501 57.3846 50.3444 56.946 51.4719C56.3651 52.9662 55.6726 54.0318 54.5528 55.1516C53.433 56.2712 52.3672 56.9652 50.8731 57.5448C49.7456 57.9834 48.0513 58.5041 44.931 58.6465C41.5567 58.8003 40.5446 58.8326 31.9999 58.8326C23.4551 58.8326 22.4436 58.8006 19.069 58.6465C15.9487 58.5041 14.2544 57.9834 13.1269 57.5448C11.6326 56.9637 10.567 56.2712 9.44722 55.1516C8.32767 54.0318 7.63361 52.966 7.05399 51.4719C6.61518 50.3444 6.0947 48.6501 5.95236 45.5298C5.79849 42.1555 5.76623 41.1435 5.76623 32.5989C5.76623 24.0544 5.79824 23.0427 5.95236 19.6679C6.0947 16.5475 6.61544 14.8532 7.05399 13.7257C7.63489 12.2314 8.32741 11.1659 9.44722 10.046C10.567 8.92649 11.6328 8.23243 13.1269 7.65281C14.2544 7.21425 15.9487 6.69352 19.069 6.55117C22.4433 6.39859 23.4554 6.36505 31.9999 6.36505ZM31.9999 0.600098C23.3092 0.600098 22.2191 0.63722 18.8061 0.792365C15.3996 0.947511 13.0742 1.48898 11.0389 2.28007C8.93417 3.0983 7.15025 4.19251 5.3712 5.9713C3.59241 7.75035 2.49717 9.53427 1.67997 11.639C0.888629 13.6745 0.347413 16.001 0.192268 19.4062C0.0371222 22.8194 0 23.9095 0 32.6C0 41.2904 0.0371222 42.3808 0.192268 45.7937C0.347413 49.2003 0.888885 51.5256 1.67997 53.561C2.4982 55.6657 3.59241 57.4496 5.3712 59.2286C7.15025 61.0077 8.93545 62.1016 11.0389 62.9199C13.0744 63.7112 15.4009 64.2524 18.8061 64.4076C22.2191 64.5627 23.3092 64.5998 31.9999 64.5998C40.6906 64.5998 41.7807 64.5627 45.1936 64.4076C48.6002 64.2524 50.9255 63.711 52.9609 62.9199C55.0656 62.1014 56.8495 61.0074 58.6285 59.2286C60.4076 57.4496 61.5015 55.6644 62.3198 53.561C63.1111 51.5256 63.6523 49.199 63.8075 45.7937C63.9626 42.3808 63.9997 41.2907 63.9997 32.6C63.9997 23.9093 63.9626 22.8192 63.8075 19.4062C63.6523 15.9997 63.1109 13.6743 62.3198 11.639C61.5013 9.53427 60.4073 7.75035 58.6285 5.9713C56.8495 4.19251 55.0643 3.0983 52.9609 2.28007C50.9255 1.48873 48.5989 0.947511 45.1936 0.792365C41.7809 0.63722 40.6906 0.600098 31.9999 0.600098ZM31.9999 16.1679C22.9244 16.1679 15.5678 23.5245 15.5678 32.6C15.5678 41.6755 22.9244 49.0323 31.9999 49.0323C41.0754 49.0323 48.4322 41.6755 48.4322 32.6C48.4322 23.5245 41.0754 16.1679 31.9999 16.1679ZM31.9999 43.2674C26.1092 43.2674 21.3327 38.4924 21.3327 32.6002C21.3327 26.708 26.1092 21.9331 31.9999 21.9331C37.8905 21.9331 42.667 26.708 42.667 32.6002C42.667 38.4924 37.8905 43.2674 31.9999 43.2674ZM49.0812 11.6789C46.9599 11.6789 45.2412 13.3975 45.2412 15.5189C45.2412 17.6402 46.9599 19.3591 49.0812 19.3591C51.2026 19.3591 52.9215 17.6402 52.9215 15.5189C52.9215 13.3975 51.2028 11.6789 49.0812 11.6789Z" fill="black"/>
</svg>
